<svg xmlns="http://www.w3.org/2000/svg" width="433.984" height="134.515" viewBox="0 0 433.984 134.515"><defs><style>.a{fill:#44bac1;}.b{fill:#e84c1d;}</style></defs><g transform="translate(0 0)"><g transform="translate(0.335 0)"><path class="a" d="M386.529,328.169V271.724h20.8v56.809c0,18.733-16.18,29.562-33.7,29.562-17.395,0-33.816-10.829-33.816-29.562V271.724h20.8v56.445c0,6.931,6.69,10.34,13.017,10.34S386.529,335.1,386.529,328.169Z" transform="translate(-339.816 -270.627)"/><path class="a" d="M426.014,346.861H392.439l-4.986,10.7h-21.29V354.4l38.32-83.088h9.367L452.29,354.4v3.16H431Zm-16.909-41-9.611,22.384h19.463Z" transform="translate(-295.491 -271.315)"/><path class="a" d="M477.695,271.633h7.784v85.392H463.218v-37.95L445.094,338.05h-2.433l-18-18.975v37.952H402.4V271.636h8.028l33.331,36.981Z" transform="translate(-234.535 -270.78)"/><path class="a" d="M437.4,306.708c0-6.813,5.351-11.311,12.164-11.311,6.569,0,11.92,4.5,11.92,11.311,0,6.69-5.351,11.073-11.92,11.073C442.755,317.781,437.4,313.4,437.4,306.708Z" transform="translate(-175.64 -230.801)"/><path class="a" d="M443.936,291.186V271.723h63.252v19.463h-20.8v65.688H464.858V291.186Z" transform="translate(-164.65 -270.629)"/><path class="a" d="M511.835,319.9h.609l19.463-48.172h20.922v3.286L516.7,357.851h-9.243L470.964,275.01v-3.286h20.922Z" transform="translate(-119.18 -270.627)"/></g><g transform="translate(0 108.042)"><path class="b" d="M351.928,326.181h.182l5.829-14.423H364.2v.982l-10.818,24.806h-2.768L339.691,312.74v-.982h6.266Z" transform="translate(-339.691 -311.318)"/><path class="b" d="M349.452,324.815c0-17.628,26.156-17.628,26.156,0C375.608,342.484,349.452,342.484,349.452,324.815Zm19.49,0c0-9.179-12.787-9.179-12.787,0C356.155,334.072,368.942,334.072,368.942,324.815Z" transform="translate(-323.27 -311.594)"/><path class="b" d="M373.608,311.648c5.281,0,11,2.878,11.985,9.691h-6.411c-.909-2.588-2.841-3.753-5.574-3.753-3.825,0-6.338,2.878-6.338,7.1,0,3.75,2.479,7.028,6.338,7.065,2.768,0,4.989-1.384,5.684-4.115H385.7c-.95,7.21-6.666,10.056-12.095,10.056-6.483.035-13.042-4.337-13.076-13.007.035-8.669,6.593-13.042,13.076-13.042Z" transform="translate(-304.631 -311.503)"/><path class="b" d="M384.256,331.535v5.721H371.324v-5.721h3.24v-14.1h-2.985v-5.681H384v5.681h-2.988v14.1Z" transform="translate(-286.473 -311.318)"/><path class="b" d="M388.775,328.989v8.267h-6.631v-25.5h15.882v5.826h-9.254v5.574h8.2v5.831Z" transform="translate(-268.27 -311.318)"/><path class="b" d="M403.9,328.659v-16.9h6.3v17.011c0,5.612-4.917,8.852-10.163,8.852-5.209,0-10.126-3.24-10.126-8.852V311.758h6.228v16.9c0,2.076,2,3.1,3.9,3.1S403.9,330.735,403.9,328.659Z" transform="translate(-255.205 -311.318)"/><path class="b" d="M399.02,324.815c0-17.628,26.156-17.628,26.156,0C425.175,342.484,399.02,342.484,399.02,324.815Zm19.487,0c0-9.179-12.787-9.179-12.787,0C405.723,334.072,418.507,334.072,418.507,324.815Z" transform="translate(-239.879 -311.594)"/><path class="b" d="M431.949,336.307v.95h-7.285l-4.372-7.5H416.9v7.5h-6.521v-25.5h11.183c10.016.038,11.84,12.092,5.392,16.464Zm-10.381-18.723c-1.529-.038-3.133,0-4.662,0v6.3h4.662C425.1,323.885,425.283,317.619,421.568,317.584Z" transform="translate(-220.763 -311.318)"/><path class="b" d="M432.914,331.535v5.721H419.982v-5.721h3.24v-14.1h-2.985v-5.681h12.422v5.681h-2.988v14.1Z" transform="translate(-204.614 -311.318)"/><path class="b" d="M440.419,337.256H430.8v-25.5h9.616C457.028,311.83,457.028,337.181,440.419,337.256Zm-3.1-5.936h3.1c8.122,0,8.122-13.626,0-13.626h-3.1Z" transform="translate(-186.409 -311.318)"/><path class="b" d="M457.129,334.257H447.076l-1.5,3.205h-6.373v-.95l11.472-24.879h2.806L465,336.513v.95h-6.376Zm-5.064-12.309-2.843,6.7h5.756Z" transform="translate(-172.273 -311.527)"/><path class="b" d="M456.679,331.39h9.251v5.866h-15.81v-25.5h6.556C456.679,324.944,456.679,320.535,456.679,331.39Z" transform="translate(-153.91 -311.318)"/><path class="b" d="M473.517,311.648c5.281,0,11,2.878,11.985,9.691H479.09c-.912-2.588-2.843-3.753-5.574-3.753-3.825,0-6.338,2.878-6.338,7.1,0,3.75,2.479,7.028,6.338,7.065,2.768,0,4.989-1.384,5.681-4.115h6.413c-.95,7.21-6.666,10.056-12.095,10.056-6.483.035-13.042-4.337-13.076-13.007.035-8.669,6.593-13.042,13.076-13.042Z" transform="translate(-136.55 -311.503)"/><path class="b" d="M471.165,324.815c0-17.628,26.153-17.628,26.153,0C497.318,342.484,471.165,342.484,471.165,324.815Zm19.49,0c0-9.179-12.789-9.179-12.789,0C477.865,334.072,490.655,334.072,490.655,324.815Z" transform="translate(-118.507 -311.594)"/><path class="b" d="M504.094,336.307v.95h-7.285l-4.372-7.5h-3.388v7.5h-6.521v-25.5h11.183c10.016.038,11.837,12.092,5.391,16.464Zm-10.381-18.723c-1.529-.038-3.133,0-4.662,0v6.3h4.662C497.249,323.885,497.428,317.619,493.713,317.584Z" transform="translate(-99.39 -311.318)"/><path class="b" d="M491.517,324.815c0-17.628,26.153-17.628,26.153,0C517.67,342.484,491.517,342.484,491.517,324.815Zm19.487,0c0-9.179-12.789-9.179-12.789,0C498.217,334.072,511,334.072,511,324.815Z" transform="translate(-84.268 -311.594)"/></g></g></svg>